<?xml version="1.0" encoding="UTF-8" standalone="no"?>
<!-- Created with Inkscape (http://www.inkscape.org/) -->

<svg
   width="45.846642mm"
   height="19.292631mm"
   viewBox="0 0 45.846642 19.292631"
   version="1.1"
   id="svg5"
   inkscape:version="1.1.1 (3bf5ae0d25, 2021-09-20)"
   sodipodi:docname="initials.svg"
   xmlns:inkscape="http://www.inkscape.org/namespaces/inkscape"
   xmlns:sodipodi="http://sodipodi.sourceforge.net/DTD/sodipodi-0.dtd"
   xmlns="http://www.w3.org/2000/svg"
   xmlns:svg="http://www.w3.org/2000/svg">
  <sodipodi:namedview
     id="namedview7"
     pagecolor="#ffffff"
     bordercolor="#666666"
     borderopacity="1.0"
     inkscape:pageshadow="2"
     inkscape:pageopacity="0.0"
     inkscape:pagecheckerboard="0"
     inkscape:document-units="mm"
     showgrid="false"
     inkscape:zoom="1.5536476"
     inkscape:cx="175.3937"
     inkscape:cy="115.53457"
     inkscape:window-width="1920"
     inkscape:window-height="1057"
     inkscape:window-x="1912"
     inkscape:window-y="-8"
     inkscape:window-maximized="1"
     inkscape:current-layer="layer1" />
  <defs
     id="defs2">
    <inkscape:path-effect
       effect="powerstroke"
       id="path-effect18985"
       is_visible="true"
       lpeversion="1"
       offset_points="0,4.99214"
       not_jump="false"
       sort_points="true"
       interpolator_type="CubicBezierJohan"
       interpolator_beta="0.2"
       start_linecap_type="zerowidth"
       linejoin_type="extrp_arc"
       miter_limit="4"
       scale_width="1"
       end_linecap_type="zerowidth" />
    <rect
       x="132.5912"
       y="386.18796"
       width="480.16037"
       height="311.52496"
       id="rect3267" />
  </defs>
  <g
     inkscape:label="Layer 1"
     inkscape:groupmode="layer"
     id="layer1"
     transform="translate(-58.984293,-123.17232)">
    <path
       id="path19405"
       d="m 67.751036,132.1702 c 1.334415,-0.95181 2.727235,-1.82351 4.141261,-2.65172 0.535342,-0.31355 1.034621,-0.70938 1.618588,-0.91888 0.497623,-0.17852 -0.903324,0.54955 -1.354984,0.82432 0.364683,-0.19288 0.725699,-0.39287 1.094055,-0.57864 0.272243,-0.1373 0.542015,-0.2826 0.827251,-0.39034 0.14537,-0.0549 0.318212,-0.16546 0.456491,-0.0946 0.104204,0.0534 -0.224269,0.0882 -0.306668,0.17139 -0.313483,0.31656 -0.565925,0.68893 -0.868815,1.01565 -0.513823,0.55425 -1.053446,1.08401 -1.580171,1.62602 -3.824105,3.61014 -7.836146,7.02358 -11.970541,10.27306 -0.25423,0.19116 -1.046453,0.7172 -0.762693,0.57348 1.07229,-0.5431 2.066033,-1.23273 3.137969,-1.77654 0.246166,-0.12488 0.570002,-0.0651 0.798243,-0.22035 0.536175,-0.36468 0.952529,-0.88048 1.44332,-1.30428 2.058728,-1.77768 2.799482,-2.31617 5.036288,-4.07873 4.874321,-3.69609 9.88259,-7.23629 15.136776,-10.37476 -0.354479,1.28612 -2.053302,1.07559 -2.828616,1.90759 -3.254576,3.4925 2.095378,-1.712 -2.211154,2.53215 -1.14045,1.12393 -2.024555,1.84531 -3.238014,2.88537 -1.237908,1.06894 -2.547495,2.05558 -3.775897,3.13582 -0.191291,0.16822 -0.972672,0.81895 -1.057812,1.19685 -0.03766,0.16713 0.08196,0.33269 0.122941,0.49903 0.208185,0.11378 0.396605,0.27557 0.624557,0.34133 0.311504,0.0899 0.641858,0.0985 0.965517,0.1174 0.82623,0.0481 1.987016,-0.009 2.798562,-0.008 1.857224,0.002 1.757685,0.0264 3.672567,0.14802 1.204791,0.0926 2.401165,0.2703 3.60454,0.37646 0.572337,0.0505 1.152451,0.21024 1.719607,0.11831 0.929904,-0.15072 1.800037,-0.55644 2.700057,-0.83466 0,0 0.14587,-0.10556 0.14587,-0.10556 v 0 c -0.08871,-0.297 -0.0035,-0.72636 -0.266147,-0.89101 -0.440894,-0.27639 -1.02671,-0.17105 -1.542135,-0.24261 -1.256006,-0.17437 -2.322875,-0.27345 -3.587691,-0.40458 -1.619525,-0.1427 -2.018165,-0.20857 -3.606081,-0.23407 -1.305986,-0.021 -2.641258,0.11955 -3.92716,-0.18335 -0.024,-0.056 -0.09075,-0.11007 -0.07202,-0.16808 0.117269,-0.36316 0.694394,-0.83399 0.89933,-1.01777 1.174845,-1.05356 2.42493,-2.02194 3.60471,-3.06983 1.623567,-1.41287 3.278065,-2.80949 4.715785,-4.41842 0.374925,-0.41958 0.814929,-0.80759 1.058891,-1.31463 0.157115,-0.32654 0.447556,-1.16556 0.09472,-1.08298 -1.38422,0.32398 -2.529099,1.29915 -3.793651,1.94872 -4.855509,3.1264 -9.510458,6.55366 -14.132158,10.01252 -2.823636,2.16984 -2.859225,2.18158 -5.525053,4.28631 -0.624302,0.4929 -1.308555,0.91988 -1.866444,1.48685 -0.325872,0.33118 -1.203291,1.28277 -0.751616,1.17386 1.640301,-0.39554 2.728386,-1.34848 3.921022,-2.31926 3.971991,-3.33538 7.890949,-6.73619 11.73756,-10.21535 0.608242,-0.58868 1.247746,-1.1467 1.82473,-1.76605 0.09252,-0.0993 1.601796,-1.40397 0.895409,-2.0492 -0.156869,-0.14329 -0.429499,0.0294 -0.629174,0.10199 -0.404008,0.14687 -1.894017,0.99103 -2.167324,1.14169 -3.435678,1.96828 -6.903103,3.90128 -10.198481,6.1016 0,0 3.22389,-1.28137 3.22389,-1.28137 z"
       style="stroke-width:0.264583;fill:#ffffff;fill-opacity:1" />
    <path
       id="path19402"
       d="m 94.963802,124.98245 c -0.02022,0.19315 -0.02231,0.38907 -0.06067,0.57944 -0.326064,1.61781 -1.040638,3.14961 -1.735277,4.63375 -0.67273,1.43733 -1.260708,2.54444 -1.987601,3.95402 -0.778721,1.46987 -1.59395,2.92023 -2.445726,4.34896 -0.168865,0.28325 -0.338844,0.56588 -0.513612,0.84552 -0.122123,0.19541 -0.279823,0.37052 -0.376957,0.57948 -0.02732,0.0588 0.01172,0.12909 0.0176,0.19363 0.401627,-0.12649 0.803256,-0.25298 1.204886,-0.37947 0,0 0.896588,-0.70771 0.896588,-0.70771 v 0 c 0.341493,-0.10115 0.682985,-0.20229 1.024477,-0.30343 0.110279,-0.11504 0.239763,-0.21435 0.330835,-0.34512 0.118793,-0.17057 0.196184,-0.36652 0.292902,-0.55051 0.141266,-0.26873 0.280974,-0.53827 0.42105,-0.80762 0.73419,-1.41174 1.463186,-2.82619 2.185361,-4.24413 1.003548,-1.96562 2.011367,-3.9287 2.928413,-5.93684 0.49824,-1.09104 0.862253,-1.84239 1.169829,-2.95707 0.06425,-0.23286 0.08634,-0.47535 0.129511,-0.71303 0,0 -3.481599,1.81013 -3.481599,1.81013 z"
       style="display:inline;stroke-width:0.264583;fill:#ffffff;fill-opacity:1" />
    <path
       id="path19399"
       d="m 95.76364,127.26197 c 0.671092,-0.25426 1.378791,-0.40727 2.088234,-0.50737 0.356333,-0.0503 0.713653,-0.10906 1.07347,-0.11474 0.389528,-0.006 0.790065,-0.0227 1.166026,0.0794 0.37065,0.10063 0.68654,0.34452 1.0298,0.51678 0.1919,0.37256 0.52722,0.7014 0.5757,1.11766 0.14114,1.21204 -0.62902,2.89637 -1.16076,3.85446 -0.868779,1.56538 -2.013718,2.94424 -3.27817,4.20186 -0.675973,0.67232 -1.424453,1.26758 -2.13668,1.90137 -1.551138,1.16609 -3.135836,2.28953 -4.808833,3.2741 0,0 -0.686488,0.55209 -0.686488,0.55209 v 0 c 2.889911,-1.50527 5.868463,-2.90869 8.392938,-5.0082 0.714967,-0.64758 1.466339,-1.25711 2.144903,-1.94274 1.30097,-1.31452 2.45396,-2.72418 3.35632,-4.34495 0.62253,-1.11816 1.4431,-2.87918 1.2928,-4.26252 -0.0533,-0.49041 -0.43341,-0.8863 -0.65012,-1.32944 -0.36755,-0.21424 -0.70101,-0.50243 -1.10265,-0.64271 -0.67096,-0.23434 -1.54275,-0.14899 -2.23083,-0.0855 -0.67848,0.0626 -1.359938,0.1626 -2.01829,0.34111 0,0 -3.04737,2.39936 -3.04737,2.39936 z"
       style="stroke-width:0.264583;fill:#ffffff;fill-opacity:1" />
  </g>
</svg>
